<?xml version="1.0" encoding="utf-8"?>
<!-- Generator: Adobe Illustrator 21.1.0, SVG Export Plug-In . SVG Version: 6.00 Build 0)  -->
<svg version="1.1" id="Layer_1" xmlns="http://www.w3.org/2000/svg" xmlns:xlink="http://www.w3.org/1999/xlink" x="0px" y="0px"
	 viewBox="0 0 349.2 286" style="enable-background:new 0 0 349.2 286;" xml:space="preserve">
<g>
	<path d="M32.2,135.4C11.1,122,3.8,103,10.1,76.2C17.4,45.4,38,26.4,70.7,21.5c32.4-4.9,64.9-9.4,97.4-13.9
		c19.6-2.7,39.3-5.3,59-7.2c16.7-1.6,32.3,2.2,46.8,11c12,7.2,24.3,13.8,36.8,20.1c15.6,7.8,24.1,20.6,27.4,37.1
		c4.5,22.2,2.7,44.2-5,65.5c-4.2,11.8-13.4,20.1-23.5,27.2c-1.3,0.9-2.8,1.7-4.7,2.9c6.3,8.7,12.4,17.2,18.5,25.7
		c7,9.7,14.1,19.4,21.1,29.1c10.5,14.7,1.6,35.1-16.2,37.6c-10.6,1.5-21.1,3-31.6,4.6c-7.3,1.1-14,0-20.6-3.8
		c-12.8-7.4-26-14.3-39-21.3c-0.8-0.5-1.8-0.8-3.7-1.6c0,4,0,7.4,0,10.7c0,6.8-0.2,13.7,0,20.5c0.1,3.4-1.1,4.5-4.4,5
		c-27.9,3.8-55.7,7.9-83.6,11.6c-11.9,1.6-23.8,3-35.7,3.6c-16.6,1-31.1-5.7-45.1-13.9c-11.1-6.5-22.3-12.7-33.8-18.4
		C13.1,244.6,3.6,230.1,1,210.8c-2.6-18.9-0.1-37.2,10.7-53.1C17.3,149.5,25.2,142.9,32.2,135.4z M285.7,158.8
		c3.7-1.3,6.7-2.2,9.6-3.4c13.7-5.6,24.4-14.6,28.9-29.1c5.1-16.6,6.3-33.7,3.4-50.9c-3.6-21-13.5-31.5-34.5-35.2
		c-19.2-3.5-38.1,1.2-57,3.7c-0.9,0.1-2.2,1.7-2.3,2.6c-0.2,7.9-0.1,15.9-0.1,24.1c3,0,5.3-0.1,7.7,0c11.8,0.5,20,7.8,22.1,19.4
		c3.6,20.3-5.7,36-25.3,42.2c-3.5,1.1-4.7,2.6-4.6,6.2c0.2,10.5,0,21,0.2,31.5c0,1.9,0.5,4.1,1.5,5.6c15,22.6,30.2,45.1,45.4,67.6
		c3.2,4.7,7.8,6.8,13.3,6.1c11.6-1.5,23.1-3.1,34.6-4.8c8.7-1.3,12.1-9.6,7-16.8c-6.6-9.2-13.3-18.3-19.9-27.5
		C305.7,186.5,296,173,285.7,158.8z M159.2,54.2c-14.1,2.1-28.9,4.2-43.6,6.7c-5.4,0.9-10.9,2.4-15.7,4.8
		C77.3,77,67.8,96.2,68.6,120.8c0.6,19.2,9.8,29.3,28.8,32.4c2.2,0.4,5.3-0.6,5.3,3.5c0,8.2,1.1,8.5-3.8,10.9
		c-6.8,2.9-13.5,6.7-19.3,11.3c-16.5,13.3-20.4,31.6-19,51.7c1.7,23.3,15.7,38.5,38.8,42.1c20,3.1,39.3-2,58.4-4.3
		c0-9.6,0-18.7,0-28.1c-2.2,0-3.7,0-5.1,0c-3.2,0-6.3,0.2-9.5,0c-15.3-1.1-22.2-8.6-23.8-25.4c-2.2-22.9,9.4-38.3,32-42.6
		c1.3-0.2,2.8-0.2,3.9-0.8c1-0.5,2.3-1.7,2.3-2.6c0.2-8.1,0.1-16.2,0.1-24.3c-4-0.4-7.4-0.6-10.9-1.2c-8.4-1.4-14.6-6-17.2-14.2
		c-6.2-19.7,1.9-41.3,24.4-46.4c3.6-0.8,3.9-2.5,4-5.5C158.2,69.9,158.8,62.5,159.2,54.2z M222.4,45.9c-2.8,0.3-4.9,0.4-7.1,0.7
		c-10.2,1.4-20.5,2.9-30.7,4.3c-11.7,1.7-15.3,6-15.3,17.9c-0.1,34-0.2,68-0.4,102c-0.1,28-0.2,56-0.2,84c0,9.4,2.5,11.5,11.9,10.2
		c8.2-1.1,16.5-2.4,24.7-3.5c12.2-1.6,16.6-6.5,16.6-18.7c0.1-21.5,0.2-43,0.3-64.5c0.1-42.2,0.1-84.3,0.1-126.5
		C222.4,50.1,222.4,48.3,222.4,45.9z"/>
</g>
</svg>
